<svg width="41" height="41" viewBox="0 0 41 41" fill="none" xmlns="http://www.w3.org/2000/svg">
<g id="credit-card-2015 1">
<g id="Group">
<path id="Vector" d="M22.5649 25.6511H12.3142C12.1309 25.6511 11.9821 25.5027 11.9821 25.3191C11.9821 25.1355 12.1309 24.9871 12.3142 24.9871H22.5649C22.7485 24.9871 22.8969 25.1355 22.8969 25.3191C22.8969 25.5027 22.7485 25.6511 22.5649 25.6511Z" fill="#FF4B85"/>
<path id="Vector_2" d="M18.2349 28.0915H12.3142C12.1309 28.0915 11.9821 27.9431 11.9821 27.7595C11.9821 27.5759 12.1309 27.4275 12.3142 27.4275H18.2352C18.4185 27.4275 18.5673 27.5759 18.5673 27.7595C18.5673 27.9431 18.4182 28.0915 18.2349 28.0915Z" fill="#FF4B85"/>
<path id="Vector_3" d="M22.5649 28.0915H19.7815C19.5982 28.0915 19.4495 27.9431 19.4495 27.7595C19.4495 27.5759 19.5982 27.4275 19.7815 27.4275H22.5649C22.7485 27.4275 22.8969 27.5759 22.8969 27.7595C22.8969 27.9431 22.7485 28.0915 22.5649 28.0915Z" fill="#FF4B85"/>
<path id="Vector_4" d="M32.3398 28.0915H27.303C27.1193 28.0915 26.9709 27.9431 26.9709 27.7595V25.3191C26.9709 25.1355 27.1193 24.9871 27.303 24.9871H32.3398C32.5235 24.9871 32.6719 25.1355 32.6719 25.3191V27.7595C32.6719 27.9428 32.5231 28.0915 32.3398 28.0915ZM27.635 27.4275H32.0078V25.6511H27.635V27.4275Z" fill="#FF4B85"/>
<path id="Vector_5" d="M34.5807 14.0437H32.6453L32.3804 11.0834C32.3315 10.5372 31.8455 10.1341 31.3009 10.1812L6.56743 12.3965C6.3028 12.4204 6.06308 12.5456 5.89274 12.7495C5.72241 12.9533 5.64173 13.2117 5.6653 13.476L7.00537 28.4388C7.05153 28.9552 7.48682 29.345 7.99582 29.345C8.02537 29.345 8.05492 29.3436 8.0848 29.341L8.72163 29.2839V30.0927C8.72163 30.6239 9.15393 31.0559 9.68485 31.0559H34.58C35.1113 31.0559 35.5433 30.6236 35.5433 30.0927V22.4846V17.1811V15.0073C35.5439 14.476 35.1116 14.0437 34.5807 14.0437ZM8.02603 28.6799C7.84109 28.6982 7.68304 28.5614 7.66678 28.3801L6.32671 13.4169C6.31044 13.2352 6.44491 13.0742 6.62653 13.0579L31.3597 10.843C31.5387 10.8257 31.7027 10.9608 31.7186 11.1428L31.9783 14.0437H9.68551C9.15427 14.0437 8.7223 14.476 8.7223 15.0069V17.1807V22.4842V28.6171L8.02603 28.6799ZM9.38602 17.8451H34.8799V21.8205H9.38602V17.8451ZM34.8799 30.093C34.8799 30.258 34.7457 30.3922 34.5807 30.3922H9.68551C9.52049 30.3922 9.38635 30.258 9.38635 30.093V22.4846H34.8799V30.093ZM9.38602 17.1811V15.0073C9.38602 14.8423 9.52016 14.7081 9.68518 14.7081H34.5804C34.7454 14.7081 34.8795 14.8423 34.8795 15.0073V17.1811H9.38602Z" fill="#FF4B85"/>
</g>
</g>
</svg>
