<svg width="32" height="32" viewBox="0 0 32 32" fill="none" xmlns="http://www.w3.org/2000/svg">
<g id="facebook ">
<rect width="32" height="32" rx="16" fill="white"/>
<path id="Vector" d="M21.7663 5.33793L18.9999 5.3335C15.8918 5.3335 13.8833 7.39421 13.8833 10.5837V13.0044H11.1017C10.8613 13.0044 10.6667 13.1993 10.6667 13.4396V16.947C10.6667 17.1873 10.8615 17.382 11.1017 17.382H13.8833V26.232C13.8833 26.4724 14.0779 26.667 14.3183 26.667H17.9474C18.1878 26.667 18.3824 26.4722 18.3824 26.232V17.382H21.6347C21.8751 17.382 22.0697 17.1873 22.0697 16.947L22.0711 13.4396C22.0711 13.3242 22.0251 13.2137 21.9437 13.132C21.8622 13.0504 21.7513 13.0044 21.6358 13.0044H18.3824V10.9524C18.3824 9.96605 18.6175 9.46536 19.9023 9.46536L21.7659 9.46469C22.006 9.46469 22.2007 9.26983 22.2007 9.02969V5.77294C22.2007 5.53302 22.0063 5.33838 21.7663 5.33793Z" fill="#131313" fill-opacity="0.5"/>
<rect x="0.25" y="0.25" width="31.5" height="31.5" rx="15.75" stroke="black" stroke-opacity="0.1" stroke-width="0.5"/>
</g>
</svg>
