<svg width="24" height="24" viewBox="0 0 24 24" fill="none" xmlns="http://www.w3.org/2000/svg">
<g id="facebook ">
<path id="Vector" d="M16.3248 4.00333L14.2499 4C11.9189 4 10.4124 5.54554 10.4124 7.93766V9.75319H8.32625C8.14598 9.75319 8 9.89934 8 10.0796V12.7101C8 12.8904 8.14615 13.0363 8.32625 13.0363H10.4124V19.6739C10.4124 19.8542 10.5584 20.0002 10.7387 20.0002H13.4606C13.6408 20.0002 13.7868 19.854 13.7868 19.6739V13.0363H16.226C16.4063 13.0363 16.5523 12.8904 16.5523 12.7101L16.5533 10.0796C16.5533 9.99305 16.5188 9.91016 16.4578 9.8489C16.3967 9.78764 16.3134 9.75319 16.2269 9.75319H13.7868V8.21414C13.7868 7.47442 13.9631 7.0989 14.9267 7.0989L16.3244 7.0984C16.5045 7.0984 16.6505 6.95225 16.6505 6.77214V4.32958C16.6505 4.14964 16.5047 4.00366 16.3248 4.00333Z" fill="#131313"/>
</g>
</svg>
