<svg width="16" height="20" viewBox="0 0 16 20" fill="none" xmlns="http://www.w3.org/2000/svg">
<path d="M15.5 8.36364C15.5 14.0909 8.25 19 8.25 19C8.25 19 1 14.0909 1 8.36364C1 6.41068 1.76384 4.53771 3.12348 3.15676C4.48311 1.77581 6.32718 1 8.25 1C10.1728 1 12.0169 1.77581 13.3765 3.15676C14.7362 4.53771 15.5 6.41068 15.5 8.36364Z" stroke="black" stroke-linecap="round" stroke-linejoin="round"/>
<path d="M8.25 10.8182C9.58469 10.8182 10.6667 9.71924 10.6667 8.36364C10.6667 7.00803 9.58469 5.90909 8.25 5.90909C6.91531 5.90909 5.83333 7.00803 5.83333 8.36364C5.83333 9.71924 6.91531 10.8182 8.25 10.8182Z" stroke="black" stroke-linecap="round" stroke-linejoin="round"/>
</svg>
