<svg width="16" height="16" viewBox="0 0 16 16" fill="none" xmlns="http://www.w3.org/2000/svg">
<g id="Group 221">
<path id="Vector" d="M15.9958 16.0001V15.9994H15.9998V10.1315C15.9998 7.26081 15.3818 5.0495 12.0258 5.0495C10.4125 5.0495 9.32981 5.93483 8.88782 6.77415H8.84115V5.3175H5.65918V15.9994H8.97248V10.7101C8.97248 9.31746 9.23648 7.97081 10.9611 7.97081C12.6604 7.97081 12.6858 9.56012 12.6858 10.7994V16.0001H15.9958Z" fill="#131313"/>
<path id="Vector_2" d="M0.263916 5.31812H3.58122V16H0.263916V5.31812Z" fill="#131313"/>
<path id="Vector_3" d="M1.92132 0C0.860659 0 0 0.860659 0 1.92132C0 2.98197 0.860659 3.86063 1.92132 3.86063C2.98197 3.86063 3.84263 2.98197 3.84263 1.92132C3.84196 0.860659 2.98131 0 1.92132 0V0Z" fill="#131313"/>
</g>
</svg>
