<svg width="32" height="32" viewBox="0 0 32 32" fill="none" xmlns="http://www.w3.org/2000/svg">
<g id="instagram">
<rect width="32" height="32" rx="16" fill="white"/>
<g id="Group 192">
<path id="Vector" d="M15.8364 11.2969C13.3314 11.2969 11.3035 13.3271 11.3035 15.8298C11.3035 18.3348 13.3336 20.3627 15.8364 20.3627C18.3414 20.3627 20.3693 18.3326 20.3693 15.8298C20.3693 13.3248 18.3392 11.2969 15.8364 11.2969ZM15.8364 18.772C14.2103 18.772 12.8942 17.4551 12.8942 15.8298C12.8942 14.2045 14.2111 12.8876 15.8364 12.8876C17.4617 12.8876 18.7786 14.2045 18.7786 15.8298C18.7793 17.4551 17.4625 18.772 15.8364 18.772Z" fill="#131313" fill-opacity="0.5"/>
<path id="Vector_2" d="M19.4757 7.05549C17.8504 6.97967 13.8246 6.98335 12.1978 7.05549C10.7683 7.12248 9.50734 7.46771 8.49078 8.48427C6.79185 10.1832 7.009 12.4725 7.009 15.8299C7.009 19.266 6.81761 21.5023 8.49078 23.1755C10.1963 24.8803 12.5187 24.6572 15.8364 24.6572C19.2401 24.6572 20.4149 24.6594 21.6185 24.1935C23.2548 23.5582 24.49 22.0956 24.6107 19.4684C24.6873 17.8424 24.6829 13.8174 24.6107 12.1906C24.465 9.08935 22.8007 7.2086 19.4757 7.05549ZM22.0484 22.0514C20.9346 23.1651 19.3896 23.0658 15.815 23.0658C12.1345 23.0658 10.6586 23.1202 9.58169 22.0404C8.34135 20.8059 8.56586 18.8236 8.56586 15.8181C8.56586 11.7511 8.14849 8.82214 12.2302 8.61309C13.168 8.57997 13.444 8.56892 15.8047 8.56892L15.8378 8.59101C19.7605 8.59101 22.8382 8.18026 23.023 12.2612C23.0649 13.1924 23.0745 13.4721 23.0745 15.8291C23.0738 19.467 23.143 20.9517 22.0484 22.0514Z" fill="#131313" fill-opacity="0.5"/>
<path id="Vector_3" d="M20.5489 12.1776C21.1339 12.1776 21.6082 11.7033 21.6082 11.1183C21.6082 10.5333 21.1339 10.0591 20.5489 10.0591C19.9639 10.0591 19.4897 10.5333 19.4897 11.1183C19.4897 11.7033 19.9639 12.1776 20.5489 12.1776Z" fill="#131313" fill-opacity="0.5"/>
</g>
<rect x="0.25" y="0.25" width="31.5" height="31.5" rx="15.75" stroke="black" stroke-opacity="0.1" stroke-width="0.5"/>
</g>
</svg>
