<svg width="32" height="32" viewBox="0 0 32 32" fill="none" xmlns="http://www.w3.org/2000/svg">
<g id="linkedin">
<rect width="32" height="32" rx="16" fill="white"/>
<g id="Group 221">
<path id="Vector" d="M24.498 24.4284V24.4277H24.5021V18.3152C24.5021 15.325 23.8584 13.0215 20.3625 13.0215C18.682 13.0215 17.5542 13.9437 17.0938 14.818H17.0452V13.3007H13.7306V24.4277H17.182V18.918C17.182 17.4673 17.457 16.0645 19.2535 16.0645C21.0237 16.0645 21.05 17.7201 21.05 19.0111V24.4284H24.498Z" fill="#131313" fill-opacity="0.5"/>
<path id="Vector_2" d="M8.27499 13.3013H11.7306V24.4284H8.27499V13.3013Z" fill="#131313" fill-opacity="0.5"/>
<path id="Vector_3" d="M10.0014 8C8.89653 8 8 8.89653 8 10.0014C8 11.1063 8.89653 12.0215 10.0014 12.0215C11.1063 12.0215 12.0028 11.1063 12.0028 10.0014C12.0021 8.89653 11.1056 8 10.0014 8V8Z" fill="#131313" fill-opacity="0.5"/>
</g>
<rect x="0.25" y="0.25" width="31.5" height="31.5" rx="15.75" stroke="black" stroke-opacity="0.1" stroke-width="0.5"/>
</g>
</svg>
