<svg width="41" height="41" viewBox="0 0 41 41" fill="none" xmlns="http://www.w3.org/2000/svg">
<path d="M31.4123 28.1212H14.1942C12.5279 28.1212 11.0633 26.9392 10.7116 25.3108L8.15066 13.4487C8.12661 13.3378 8.15441 13.2217 8.22543 13.1334C8.29681 13.0451 8.40427 12.9937 8.51774 12.9937H37.0167C37.1298 12.9937 37.2372 13.0448 37.3083 13.1327C37.3793 13.2206 37.4078 13.3359 37.3841 13.4468L34.8991 25.2905C34.5549 26.9305 33.0885 28.1212 31.4123 28.1212ZM8.98364 13.7447L11.4465 25.1518C11.7242 26.4368 12.8796 27.3694 14.1942 27.3694H31.4123C32.7353 27.3694 33.8925 26.4297 34.1638 25.1357L36.5538 13.7447H8.98364Z" fill="#FF4B85"/>
<path d="M14.0936 35.7161C12.57 35.7161 11.3305 34.4766 11.3305 32.953C11.3305 31.4291 12.57 30.1899 14.0936 30.1899C15.6171 30.1899 16.8567 31.4295 16.8567 32.953C16.8567 34.4766 15.6171 35.7161 14.0936 35.7161ZM14.0936 30.941C12.9844 30.941 12.0819 31.8435 12.0819 32.9527C12.0819 34.0618 12.984 34.9643 14.0936 34.9643C15.2031 34.9643 16.1052 34.0622 16.1052 32.9527C16.1052 31.8431 15.2027 30.941 14.0936 30.941Z" fill="#FF4B85"/>
<path d="M31.2256 35.7161C29.7016 35.7161 28.4625 34.4766 28.4625 32.953C28.4625 31.4291 29.702 30.1899 31.2256 30.1899C32.7492 30.1899 33.9887 31.4295 33.9887 32.953C33.9883 34.4766 32.7492 35.7161 31.2256 35.7161ZM31.2256 30.941C30.1164 30.941 29.2139 31.8435 29.2139 32.9527C29.2139 34.0618 30.1164 34.9643 31.2256 34.9643C32.3347 34.9643 33.2372 34.0622 33.2372 32.9527C33.2372 31.8431 32.3347 30.941 31.2256 30.941Z" fill="#FF4B85"/>
<path d="M8.51774 13.7448C8.34453 13.7448 8.18898 13.6246 8.15065 13.4483L7.65169 11.138C7.43414 10.1314 6.52901 9.40063 5.49914 9.40063H3.95265C3.74525 9.40063 3.57692 9.2323 3.57692 9.0249C3.57692 8.8175 3.74525 8.64917 3.95265 8.64917H5.49952C6.88069 8.64917 8.09467 9.62907 8.38661 10.9794L8.88558 13.2898C8.92954 13.4927 8.80029 13.6926 8.59739 13.7361C8.57072 13.7422 8.54404 13.7448 8.51774 13.7448Z" fill="#FF4B85"/>
<path d="M20.1796 13.7448H12.5959C12.3885 13.7448 12.2202 13.5765 12.2202 13.3691V9.12109C12.2202 8.91369 12.3885 8.74536 12.5959 8.74536H20.1796C20.387 8.74536 20.5553 8.91369 20.5553 9.12109V13.3691C20.5553 13.5765 20.3874 13.7448 20.1796 13.7448ZM12.9716 12.9933H19.8039V9.49682H12.9716V12.9933Z" fill="#FF4B85"/>
<path d="M28.6128 13.7447H20.1796C19.9722 13.7447 19.8039 13.5764 19.8039 13.369V9.49673H17.2463C17.0389 9.49673 16.8706 9.32841 16.8706 9.12101V5.79882C16.8706 5.59142 17.0389 5.4231 17.2463 5.4231H28.6124C28.8202 5.4231 28.9881 5.59142 28.9881 5.79882V13.369C28.9885 13.5764 28.8206 13.7447 28.6128 13.7447ZM20.5553 12.9933H28.2367V6.17455H17.622V8.74566H20.1796C20.387 8.74566 20.5553 8.91398 20.5553 9.12138V12.9933Z" fill="#FF4B85"/>
<path d="M33.025 13.7447C32.8172 13.7447 32.6492 13.5764 32.6492 13.369C32.6492 11.1431 30.8386 9.33251 28.6128 9.33251C28.405 9.33251 28.2371 9.16418 28.2371 8.95678C28.2371 8.74938 28.405 8.58105 28.6128 8.58105C31.2527 8.58105 33.4007 10.7291 33.4007 13.369C33.4007 13.5764 33.2327 13.7447 33.025 13.7447Z" fill="#FF4B85"/>
<path d="M22.7672 24.1966C22.5594 24.1966 22.3915 24.0287 22.3915 23.8209V16.6599C22.3915 16.4525 22.5594 16.2842 22.7672 16.2842C22.975 16.2842 23.143 16.4525 23.143 16.6599V23.8209C23.143 24.0287 22.975 24.1966 22.7672 24.1966Z" fill="#FF4B85"/>
<path d="M28.6259 24.1965C28.6117 24.1965 28.597 24.1958 28.582 24.1939C28.3757 24.1698 28.2284 23.9831 28.2525 23.7772L29.0896 16.6162C29.1136 16.4107 29.2959 16.2615 29.5063 16.2867C29.7125 16.3108 29.8598 16.4975 29.8358 16.7034L28.9987 23.8648C28.9765 24.0556 28.8142 24.1965 28.6259 24.1965Z" fill="#FF4B85"/>
<path d="M16.9085 24.1965C16.7293 24.1965 16.5707 24.068 16.5388 23.8858L15.2835 16.7248C15.2474 16.5204 15.3842 16.3254 15.5885 16.2897C15.7952 16.2536 15.9879 16.3908 16.0236 16.5948L17.2789 23.7558C17.315 23.9602 17.1783 24.1552 16.9739 24.1909C16.9521 24.1946 16.9303 24.1965 16.9085 24.1965Z" fill="#FF4B85"/>
</svg>
