<svg width="41" height="41" viewBox="0 0 41 41" fill="none" xmlns="http://www.w3.org/2000/svg">
<g id="support-1091 1">
<g id="Group">
<path id="Vector" d="M7.08132 34.9311C7.00911 34.9311 6.93613 34.917 6.86697 34.888C6.66103 34.8016 6.52692 34.5999 6.52692 34.3764V30.5751H4.7472C3.9563 30.5751 3.3125 29.9313 3.3125 29.1404V16.3602C3.3125 15.569 3.9563 14.9255 4.7472 14.9255H23.7262C24.5171 14.9255 25.1609 15.5693 25.1609 16.3602V29.1404C25.1609 29.9313 24.5171 30.5751 23.7262 30.5751H11.7469L7.46989 34.7722C7.36406 34.8761 7.22383 34.9311 7.08132 34.9311ZM4.7472 16.0347C4.56763 16.0347 4.42167 16.1807 4.42167 16.3602V29.1404C4.42167 29.3199 4.56763 29.4659 4.7472 29.4659H7.08132C7.38774 29.4659 7.6361 29.7143 7.6361 30.0207V33.0555L11.1317 29.6248C11.2357 29.5232 11.3747 29.4659 11.5203 29.4659H23.7266C23.9061 29.4659 24.0521 29.3199 24.0521 29.1404V16.3602C24.0521 16.1807 23.9061 16.0347 23.7266 16.0347H4.7472Z" fill="#FF4B85"/>
<path id="Vector_2" d="M20.4831 20.1709H7.99298V21.2789H20.4831V20.1709Z" fill="#FF4B85"/>
<path id="Vector_3" d="M20.4831 23.8694H7.99298V24.9774H20.4831V23.8694Z" fill="#FF4B85"/>
<path id="Vector_4" d="M33.9307 25.9744C33.7882 25.9744 33.648 25.9193 33.5421 25.8154L29.2651 21.6183H26.957V20.5091H29.4917C29.6369 20.5091 29.7764 20.566 29.8803 20.6681L33.3755 24.0987V21.0639C33.3755 20.7575 33.6239 20.5091 33.9303 20.5091H36.2644C36.444 20.5091 36.59 20.3632 36.59 20.1836V7.40345C36.59 7.22388 36.444 7.07792 36.2644 7.07792H17.2858C17.1063 7.07792 16.9603 7.22388 16.9603 7.40345V12.7449H15.8511V7.40345C15.8511 6.61255 16.4949 5.96875 17.2858 5.96875H36.2648C37.0557 5.96875 37.6995 6.61255 37.6995 7.40345V20.1836C37.6995 20.9745 37.0557 21.6183 36.2648 21.6183H34.4851V25.42C34.4851 25.6435 34.351 25.8448 34.145 25.9316C34.0759 25.9606 34.0029 25.9744 33.9307 25.9744Z" fill="#FF4B85"/>
<path id="Vector_5" d="M33.0191 11.2151H20.5289V12.3231H33.0191V11.2151Z" fill="#FF4B85"/>
<path id="Vector_6" d="M33.0191 14.9097H27.7579V16.0177H33.0191V14.9097Z" fill="#FF4B85"/>
</g>
</g>
</svg>
