<svg width="32" height="32" viewBox="0 0 32 32" fill="none" xmlns="http://www.w3.org/2000/svg">
<g id="twitter">
<rect width="32" height="32" rx="16" fill="white"/>
<path id="Vector" d="M23.945 11.2395C24.7583 10.6354 25.4425 9.88128 26 9.01297V9.0121C25.2558 9.35297 24.4642 9.57964 23.6375 9.68949C24.4875 9.15856 25.1367 8.32426 25.4417 7.31908C24.6492 7.81338 23.7742 8.1621 22.8417 8.35738C22.0892 7.51872 21.0167 7 19.8467 7C17.5767 7 15.7492 8.92754 15.7492 11.2901C15.7492 11.6301 15.7767 11.957 15.8442 12.2683C12.4358 12.0939 9.41917 10.3852 7.3925 7.78113C7.03917 8.42364 6.83083 9.15856 6.83083 9.94928C6.83083 11.4348 7.56167 12.7512 8.6525 13.5141C7.99333 13.501 7.3475 13.3005 6.8 12.9857V13.0328C6.8 15.1173 8.22083 16.8487 10.085 17.2479C9.75083 17.3438 9.3875 17.3892 9.01 17.3892C8.7475 17.3892 8.4825 17.3735 8.23417 17.3159C8.765 19.0142 10.2733 20.2635 12.065 20.3045C10.67 21.4456 8.89833 22.1335 6.98083 22.1335C6.645 22.1335 6.3225 22.1178 6 22.0751C7.81667 23.2999 9.96833 24 12.29 24C19.5258 24 24.2417 17.6847 23.945 11.2395Z" fill="#131313" fill-opacity="0.5"/>
<rect x="0.25" y="0.25" width="31.5" height="31.5" rx="15.75" stroke="black" stroke-opacity="0.1" stroke-width="0.5"/>
</g>
</svg>
