<svg width="24" height="24" viewBox="0 0 24 24" fill="none" xmlns="http://www.w3.org/2000/svg">
<g id="twitter">
<path id="Vector" d="M19.6689 7.99015C20.4697 7.42154 21.1434 6.71179 21.6923 5.89456V5.89374C20.9596 6.21456 20.1801 6.4279 19.3662 6.53128C20.2031 6.03159 20.8423 5.24636 21.1426 4.30031C20.3623 4.76554 19.5007 5.09374 18.5826 5.27754C17.8416 4.48821 16.7856 4 15.6336 4C13.3986 4 11.5992 5.81415 11.5992 8.03774C11.5992 8.35774 11.6263 8.66544 11.6927 8.95836C8.33682 8.79426 5.36656 7.18605 3.37108 4.73518C3.02318 5.3399 2.81805 6.03159 2.81805 6.77579C2.81805 8.17395 3.53764 9.41292 4.61169 10.1309C3.96267 10.1186 3.32677 9.92985 2.78769 9.63364V9.67795C2.78769 11.6398 4.18667 13.2693 6.02215 13.6451C5.69313 13.7354 5.33538 13.7781 4.96369 13.7781C4.70523 13.7781 4.44431 13.7633 4.1998 13.7091C4.72246 15.3075 6.20759 16.4833 7.97169 16.5218C6.59815 17.5959 4.85374 18.2433 2.96574 18.2433C2.63508 18.2433 2.31754 18.2285 2 18.1883C3.78872 19.3411 5.90728 20 8.19323 20C15.3177 20 19.961 14.0562 19.6689 7.99015Z" fill="#131313"/>
</g>
</svg>
